<svg id="Layer_1" data-name="Layer 1" xmlns="http://www.w3.org/2000/svg" xmlns:xlink="http://www.w3.org/1999/xlink" viewBox="0 0 654.85 192.55"><defs><style>.cls-1,.cls-14{fill:#fff;}.cls-2{fill:url(#linear-gradient);}.cls-3{fill:url(#linear-gradient-2);}.cls-4{fill:url(#linear-gradient-3);}.cls-5{fill:url(#linear-gradient-4);}.cls-6{fill:url(#linear-gradient-5);}.cls-7{fill:url(#linear-gradient-6);}.cls-8{fill:url(#linear-gradient-7);}.cls-9{fill:url(#linear-gradient-8);}.cls-10{fill:url(#linear-gradient-9);}.cls-11{fill:url(#linear-gradient-10);}.cls-12{fill:url(#linear-gradient-11);}.cls-13{fill:url(#linear-gradient-12);}.cls-14{font-size:31px;font-family:ComicSansMS, Comic Sans MS;}</style><linearGradient id="linear-gradient" x1="85.43" y1="91.2" x2="215.55" y2="91.2" gradientUnits="userSpaceOnUse"><stop offset="0" stop-color="#5ea721"/><stop offset="0.59" stop-color="#5ed621"/><stop offset="0.98" stop-color="#6efd12"/></linearGradient><linearGradient id="linear-gradient-2" x1="454.88" y1="104.12" x2="582.3" y2="104.12" xlink:href="#linear-gradient"/><linearGradient id="linear-gradient-3" x1="144.16" y1="107.04" x2="154.52" y2="107.04" gradientUnits="userSpaceOnUse"><stop offset="0" stop-color="#001530"/><stop offset="0.59" stop-color="#00b8ff"/><stop offset="0.98" stop-color="#386cff"/></linearGradient><linearGradient id="linear-gradient-4" x1="158.29" y1="107.04" x2="168.65" y2="107.04" xlink:href="#linear-gradient-3"/><linearGradient id="linear-gradient-5" x1="158.29" y1="120.61" x2="168.65" y2="120.61" xlink:href="#linear-gradient-3"/><linearGradient id="linear-gradient-6" x1="144.16" y1="120.61" x2="154.52" y2="120.61" xlink:href="#linear-gradient-3"/><linearGradient id="linear-gradient-7" x1="492.36" y1="78.58" x2="508.26" y2="78.58" xlink:href="#linear-gradient"/><linearGradient id="linear-gradient-8" x1="501.19" y1="90.7" x2="517.39" y2="90.7" xlink:href="#linear-gradient"/><linearGradient id="linear-gradient-9" x1="515.52" y1="57.36" x2="535.93" y2="57.36" xlink:href="#linear-gradient"/><linearGradient id="linear-gradient-10" x1="500.8" y1="57.92" x2="517.79" y2="57.92" xlink:href="#linear-gradient"/><linearGradient id="linear-gradient-11" x1="521.52" y1="90.03" x2="544.07" y2="90.03" xlink:href="#linear-gradient"/><linearGradient id="linear-gradient-12" x1="530.25" y1="73.28" x2="546.39" y2="73.28" xlink:href="#linear-gradient"/></defs><path class="cls-1" d="M14.53,123.9,86.45,27.18c1.32-1.77,1.91-4.88,1.61-7.68A6.82,6.82,0,0,0,87.5,17a6.68,6.68,0,0,0-1-1.9c-1.74-2.57-4.63-4.71-7.16-4.71H5.9a7.13,7.13,0,1,0,0,14.25H70.56l-69.17,93c-1.78,2.39-2,8.17-.6,11.87,1,3.83,5.52,8.6,9.09,8.6H85.43L96.14,124Z"/><path class="cls-1" d="M226.69,106.89l-65-96.19a7.36,7.36,0,0,0-12.07.09L79.09,114.34c.38.25,18.65,0,18.65,0l58-87.12L226.69,130Z"/><path class="cls-2" d="M214.2,127.07,157,44l-7.26,9.84a7.5,7.5,0,0,0-.81,1L99.83,124l-3.69,0L85.43,138.19H107.7l6.35-9.6,42.54-60,45.87,66.61a7.13,7.13,0,1,0,11.74-8.09Z"/><path class="cls-1" d="M284.16,88c57-3.78,47.86-75.83,5.26-77.58H243.08A7.13,7.13,0,0,0,236,17.52v113.2a7.33,7.33,0,0,0,6.91,7.43,7.13,7.13,0,0,0,7.35-7.13V24.65H292c28.46,8.32,21.59,45.8-2,50.12-.44.08-19.61,0-19.61,0s-4,.59-5.87,2.26a7.12,7.12,0,0,0-.65,10.06l43,49a6.62,6.62,0,0,0,9.77.32h0a7.13,7.13,0,0,0,.65-10.06Z"/><path class="cls-1" d="M397.34,25a49.09,49.09,0,0,1,36.79,16.57,7.11,7.11,0,0,0,5.64,2.79h.36a7.13,7.13,0,0,0,7.13-7.13v-.36a7.09,7.09,0,0,0-2.69-5.57,63.89,63.89,0,1,0,.09,85.79,7.08,7.08,0,0,0,2.32-5.24v-.09a7.13,7.13,0,0,0-7.13-7.13h-.45c-2,0-5,2.07-5,2.06a49.24,49.24,0,1,1-37-81.69Z"/><path class="cls-3" d="M567.56,69.81a49.79,49.79,0,0,1,.22,6.37,49.25,49.25,0,1,1-98.45-3.25c0-1,.1-2,.19-3L454.88,79.6A63.86,63.86,0,0,0,582.3,78.33Z"/><path class="cls-1" d="M582.77,50.78,524.62,2.58l0,0a7.12,7.12,0,0,0-9.92-1L453.84,50.18a7.12,7.12,0,0,0-1.12,10h0a7.14,7.14,0,0,0,10,1.12l56.2-44.92,54.73,45.36a7.14,7.14,0,0,0,10-.94h0A7.13,7.13,0,0,0,582.77,50.78Z"/><path class="cls-1" d="M647.72,123.89h-42V14.36a7.13,7.13,0,0,0-7.13-7.13h0a7.13,7.13,0,0,0-7.13,7.13V131a7.13,7.13,0,0,0,7.13,7.13h49.1a7.13,7.13,0,0,0,0-14.26Z"/><rect class="cls-4" x="144.16" y="101.86" width="10.36" height="10.36"/><rect class="cls-5" x="158.29" y="101.86" width="10.36" height="10.36"/><rect class="cls-6" x="158.29" y="115.43" width="10.36" height="10.36"/><rect class="cls-7" x="144.16" y="115.43" width="10.36" height="10.36"/><path class="cls-8" d="M494.72,72.4s-3.44,3.43-1.86,7.11,6.79,10.69,6.79,10.69a28,28,0,0,1,5.51-11.87l3.1,1.71L504.92,67l-12.56,3.72Z"/><path class="cls-9" d="M501.19,93a7.14,7.14,0,0,0,5,3.34c3.52.6,11.24.16,11.24.16l-.14-11.65L503.73,85A15,15,0,0,0,501.19,93Z"/><path class="cls-10" d="M533.22,54.41s-1.07-4.75-5-5.36-12.67.06-12.67.06a28,28,0,0,1,7.12,11l-3.09,1.72,12.85,4.12,3.53-12.61Z"/><path class="cls-11" d="M512.38,49a7.15,7.15,0,0,0-5.47,2.42c-2.38,2.66-6.11,9.44-6.11,9.44l9.94,6.07,7-11.53A14.94,14.94,0,0,0,512.38,49Z"/><path class="cls-12" d="M531.49,96.34s4.72,1.14,7-2.13,5.55-11.39,5.55-11.39a28.13,28.13,0,0,1-13,1.53l-.17-3.54-9.38,9.69,9.74,8.76Z"/><path class="cls-13" d="M545.61,80.08a7.19,7.19,0,0,0,.24-6c-1.33-3.32-5.75-9.66-5.75-9.66l-9.85,6.22,7.22,11.43A15,15,0,0,0,545.61,80.08Z"/><text class="cls-14" transform="translate(-1.23 175.29) scale(1.1 1)">Integral Maintenance &amp; Cleaning Service</text></svg>