<svg xmlns="http://www.w3.org/2000/svg" xmlns:xlink="http://www.w3.org/1999/xlink" viewBox="0 0 1467.67 851.74"><defs><style>.cls-1,.cls-4{fill:none;stroke:#9cd1e5;}.cls-1,.cls-4,.cls-6{stroke-miterlimit:10;}.cls-2{fill:url(#linear-gradient);}.cls-3{fill:url(#linear-gradient-2);}.cls-4{stroke-width:2px;}.cls-5{fill:url(#linear-gradient-3);}.cls-6{fill:#fff;stroke:#fff;}.cls-7{fill:#3ab54b;}.cls-8{font-size:83px;}.cls-16,.cls-22,.cls-8{font-family:PTSans-Bold, PT Sans;font-weight:700;}.cls-9{letter-spacing:-0.01em;}.cls-10{letter-spacing:-0.04em;}.cls-11{letter-spacing:-0.01em;}.cls-12{letter-spacing:0em;}.cls-13{letter-spacing:-0.02em;}.cls-14{letter-spacing:0em;}.cls-15{letter-spacing:-0.01em;}.cls-16{font-size:124px;}.cls-17{letter-spacing:-0.02em;}.cls-18{letter-spacing:-0.01em;}.cls-19{letter-spacing:-0.01em;}.cls-20{letter-spacing:0em;}.cls-21{letter-spacing:-0.07em;}.cls-22{font-size:39px;}</style><linearGradient id="linear-gradient" x1="588.26" y1="182.94" x2="795.58" y2="306.74" gradientUnits="userSpaceOnUse"><stop offset="0.5" stop-color="#75c1db"/><stop offset="0.5" stop-color="#38a5cb"/></linearGradient><linearGradient id="linear-gradient-2" x1="329.1" y1="282.3" x2="537.99" y2="409.85" xlink:href="#linear-gradient"/><linearGradient id="linear-gradient-3" x1="744.08" y1="299.01" x2="1023.77" y2="467.21" xlink:href="#linear-gradient"/></defs><g id="Layer_1" data-name="Layer 1"><rect class="cls-1" x="621.6" y="68.31" width="165.38" height="37.39"/><rect class="cls-1" x="621.6" y="127.31" width="165.38" height="37.39"/><rect class="cls-1" x="621.6" y="188.31" width="165.38" height="37.39"/><rect class="cls-1" x="621.6" y="246.31" width="165.38" height="37.39"/><rect class="cls-1" x="621.6" y="307.31" width="165.38" height="37.39"/><rect class="cls-1" x="621.6" y="365.31" width="165.38" height="37.39"/><path class="cls-2" d="M583.06,0V504.58h85.12V439.67H704.4v64.91h.78V439.67H741.4v64.91h84.33V0ZM787,402.7H621.6V365.31H787Zm0-58H621.6V307.31H787Zm0-61H621.6V246.31H787Zm0-58H621.6V188.31H787Zm0-61H621.6V127.31H787Zm0-59H621.6V68.31H787Z"/><rect class="cls-1" x="668.18" y="439.67" width="36.22" height="64.91"/><rect class="cls-1" x="705.18" y="439.67" width="36.22" height="64.91"/><rect class="cls-1" x="395.6" y="312.31" width="165.38" height="37.39"/><rect class="cls-1" x="395.6" y="405.45" width="165.38" height="12.25"/><rect class="cls-1" x="395.6" y="429.45" width="165.38" height="12.25"/><rect class="cls-1" x="395.6" y="453.45" width="165.38" height="12.25"/><rect class="cls-1" x="395.6" y="476.45" width="165.38" height="12.25"/><path class="cls-3" d="M468.57,161.45v95.18L355.73,161.45V504.58H600.48v-233Zm-73,150.86H561V349.7H395.6ZM561,488.7H395.6V476.45H561Zm0-23H395.6V453.45H561Zm0-24H395.6V429.45H561Zm0-24H395.6V405.45H561ZM571.34,383H561v11.15H395.6V382.39H383V370.65H571.34Z"/><polygon class="cls-1" points="383.03 370.65 571.34 370.65 571.34 382.98 560.98 382.98 560.98 394.13 395.6 394.13 395.6 382.39 383.03 382.39 383.03 370.65"/><rect class="cls-1" x="899.25" y="426.7" width="50.67" height="77.88"/><path class="cls-4" d="M913.22,447.24H936S935.49,436,924.66,436,913.22,447.24,913.22,447.24Z"/><rect class="cls-1" x="960.58" y="373.93" width="24.28" height="21.42"/><rect class="cls-1" x="985.58" y="373.93" width="24.28" height="21.42"/><rect class="cls-1" x="960.58" y="395.93" width="24.28" height="21.42"/><rect class="cls-1" x="985.58" y="395.93" width="24.28" height="21.42"/><path class="cls-5" d="M1008.33,302l-81.59-64.75L845.14,302l-81.59,64.74h37V504.58h98.68V426.7h50.67v77.88h101.7V366.75h38.3ZM862.87,417.35H838.58V395.93h24.29Zm0-22H838.58V373.93h24.29Zm25,22H863.58V395.93h24.29Zm0-22H863.58V373.93h24.29Zm97,22H960.58V395.93h24.29Zm0-22H960.58V373.93h24.29Zm25,22H985.58V395.93h24.29Zm0-22H985.58V373.93h24.29Z"/><rect class="cls-1" x="838.58" y="373.93" width="24.28" height="21.42"/><rect class="cls-1" x="863.58" y="373.93" width="24.28" height="21.42"/><rect class="cls-1" x="838.58" y="395.93" width="24.28" height="21.42"/><rect class="cls-1" x="863.58" y="395.93" width="24.28" height="21.42"/><path class="cls-6" d="M149.67,534.6S713.3,402,1288.27,536.4C1309.34,541.33,810.21,461.21,149.67,534.6Z"/><path class="cls-7" d="M149.67,552.6S713.3,420,1288.27,554.4C1309.34,559.33,810.21,479.21,149.67,552.6Z"/></g><g id="letras"><text class="cls-8" transform="translate(0 682.41)">Asociación<tspan class="cls-9" x="377.31" y="0"> </tspan><tspan class="cls-10" x="397.23" y="0">C</tspan><tspan x="440.64" y="0">ooperativa</tspan><tspan class="cls-11" x="819.12" y="0"> </tspan><tspan class="cls-10" x="839.04" y="0">C</tspan><tspan class="cls-12" x="882.45" y="0">onstru</tspan><tspan class="cls-13" x="1110.03" y="0">c</tspan><tspan class="cls-14" x="1144.56" y="0">ción</tspan><tspan class="cls-15" x="1292.63" y="0"> </tspan><tspan x="1312.55" y="0">Civil</tspan></text><text class="cls-16" transform="translate(245.36 792.96)"><tspan class="cls-17">A</tspan><tspan x="72.66" y="0">gua</tspan><tspan class="cls-18" x="267.34" y="0"> </tspan><tspan class="cls-19" x="297.1" y="0">C</tspan><tspan x="365.05" y="0">alien</tspan><tspan class="cls-20" x="626.94" y="0">t</tspan><tspan x="669.6" y="0">e R.S</tspan><tspan class="cls-21" x="934.83" y="0">.</tspan></text><text class="cls-22" transform="translate(577.76 852.6)">Rif: J-29589325-6</text></g></svg>