<svg xmlns="http://www.w3.org/2000/svg" xmlns:xlink="http://www.w3.org/1999/xlink" viewBox="0 0 1631.44 83.24"><defs><style>.cls-1{fill:url(#linear-gradient);}</style><linearGradient id="linear-gradient" y1="41.62" x2="1631.44" y2="41.62" gradientUnits="userSpaceOnUse"><stop offset="0" stop-color="#70c733"/><stop offset="0.51" stop-color="#2ea8df"/><stop offset="1" stop-color="#3dacdf"/></linearGradient></defs><g id="Layer_13" data-name="Layer 13"><path class="cls-1" d="M37.25,13.9a58.47,58.47,0,0,1-6.8-.49l-6.8-.81q-1,11.15-1,21.3,0,2.68.17,6.63T23,47.15a65,65,0,0,1-.3,6.55L36,53.55a4.18,4.18,0,0,1,3,1.13,3.83,3.83,0,0,1,0,5.59,4.14,4.14,0,0,1-3,1.13q-2.37,0-7.1.1c-3.15.06-5.52.09-7.09.09a73.06,73.06,0,0,0-8.35.71A72.77,72.77,0,0,1,5.11,63a4.22,4.22,0,0,1-3-1.13A3.66,3.66,0,0,1,.93,59.1a3.72,3.72,0,0,1,1.2-2.79,4.15,4.15,0,0,1,3-1.15,81.77,81.77,0,0,0,9.08-.81,53.19,53.19,0,0,0,.42-7.08c0-1.76-.09-3.92-.27-6.46s-.28-4.68-.28-6.41q0-8.85,1.19-22.1l-5.49.15-5.49.11a4.35,4.35,0,0,1-3-1.11A3.64,3.64,0,0,1,0,8.62Q0,5.05,4,4.71q3.42-.3,12.8-.3A168.24,168.24,0,0,1,37.84,6.05q3.77.5,3.76,4.1A3.41,3.41,0,0,1,40.17,13,5,5,0,0,1,37.25,13.9Z"/><path class="cls-1" d="M82.36,64.35a3.7,3.7,0,0,1-4.1-3.6l-1.18-8.39A65.05,65.05,0,0,1,76.49,44c0-.71.05-1.92.15-3.64s.14-2.92.14-3.63q0-8.28-3.37-8.28-4.74,0-9,5.1a33.29,33.29,0,0,0-6.08,11.72c-.06,1-.19,2.25-.38,3.75a28.28,28.28,0,0,0-.26,3.72c0,.76.09,1.91.26,3.44s.25,2.69.25,3.45A3.66,3.66,0,0,1,57,62.4a4.71,4.71,0,0,1-6,0,3.68,3.68,0,0,1-1.14-2.8,32.69,32.69,0,0,0-.27-3.45,30.41,30.41,0,0,1-.28-3.44c0-2.63.21-6.28.61-10.94s.62-8.3.62-10.94c0-.81-.05-2-.15-3.63s-.15-2.82-.15-3.64a3.42,3.42,0,0,1,1.2-2.7,4.35,4.35,0,0,1,3-1.06q3.89,0,4.27,5l.12,4.48q7.1-8.58,14.58-8.58,6.75,0,9.41,5.4,1.82,3.62,2,10.65V40.6l0,3.57a47.84,47.84,0,0,0,.91,8.21,48.71,48.71,0,0,1,.9,8.18,3.48,3.48,0,0,1-1.2,2.74A4.43,4.43,0,0,1,82.36,64.35Z"/><path class="cls-1" d="M123.5,29c-.59,0-1.29,0-2.09-.08s-1.5-.08-2.09-.08-2.57.2-5.75.58l.8,22.64,0,1.68,0,1.95q.17,8.4-4.44,8.39a4.57,4.57,0,0,1-2.93-1,3.09,3.09,0,0,1-1.25-2.49c0-1,0-2.43.13-4.37s.13-3.4.13-4.37l-.85-22.37c-2-.07-5.18-.29-9.37-.65-2.51-.3-3.76-1.57-3.76-3.79a3.77,3.77,0,0,1,1.14-2.8,4,4,0,0,1,2.91-1.11l8.87.65c0-1.3-.06-3-.19-5.22s-.19-3.76-.19-4.73a3.37,3.37,0,0,1,1.23-2.67,4.42,4.42,0,0,1,3-1.05q3.81,0,4.44,5.63c.08.95.13,2.08.13,3.41l-.09,2.22,0,2.38q5.24-.61,6-.62a26,26,0,0,1,5.74.39,3.38,3.38,0,0,1,2.58,3.6,3.64,3.64,0,0,1-1.16,2.77A4.19,4.19,0,0,1,123.5,29Z"/><path class="cls-1" d="M155.72,63.39q-9.54,0-15.45-4.32-6.47-4.8-6.47-13.41,0-10,5.32-16.7a18.66,18.66,0,0,1,15.46-7.36A26.37,26.37,0,0,1,166,23.75q5.44,2.64,5.45,8.12c0,2.55-1.59,4.88-4.78,7a69.15,69.15,0,0,1-8.95,4.29l-16.13,6.93a15,15,0,0,0,5.89,4.79,19.65,19.65,0,0,0,8.21,1.61,28.13,28.13,0,0,0,6.85-1q5-1.26,6.42-3.31c.95-1.36,2-2,3.08-2a3.91,3.91,0,0,1,2.64,1,3,3,0,0,1,1.16,2.35q0,4.26-7.56,7.32A33.47,33.47,0,0,1,155.72,63.39ZM154.58,28.5A11.31,11.31,0,0,0,146,32.12q-3.42,3.62-5.11,10.9l13-5.6a56.67,56.67,0,0,0,10.9-5.86Q161.13,28.5,154.58,28.5Z"/><path class="cls-1" d="M218.15,45.12l-1,12.87a49.55,49.55,0,0,1-1.74,12.53q-1.89,6.21-6.08,9.15-5.07,3.57-14.65,3.57a53.9,53.9,0,0,1-9.42-.69q-5.32-1-5.32-4,0-3.41,3.67-3.41a32.4,32.4,0,0,1,5.07.67,38.47,38.47,0,0,0,7.85.6q8.12-.12,11.2-7.13,2-4.67,2.15-14.36a16.2,16.2,0,0,1-5.43,5.74,13.51,13.51,0,0,1-7.2,1.92,17,17,0,0,1-12.44-4.73,16.51,16.51,0,0,1-4.79-12.28q0-10.33,6.55-16.66,6.75-6.51,18.41-6.51a20.17,20.17,0,0,1,6.59.92,8.37,8.37,0,0,1,4.06,2.75q4.51.12,4.51,4.56a40.18,40.18,0,0,1-.88,7.28Q218.32,43.22,218.15,45.12ZM204.59,28.54q-8,0-12.42,5a16.91,16.91,0,0,0-3.93,11.5q0,5.55,2.33,8.35t7,2.79q4.26,0,8.27-4.36a14.89,14.89,0,0,0,4.14-8q.88-4.14,1.9-13a12.65,12.65,0,0,0-3.5-1.76A12.51,12.51,0,0,0,204.59,28.54Z"/><path class="cls-1" d="M262.16,33.33q-.3,4.79-4.23,4.78-3.63,0-3.63-3.79c0-.48,0-1.38-.13-2.68l-.12-3.22a23.79,23.79,0,0,0-10.69,3.41,18.69,18.69,0,0,0-6.25,7.51l.09,21q0,3.87-4.19,3.87-3.7,0-3.71-3.87V33.44c0-.84,0-2.11.1-3.79s.11-2.95.11-3.79q0-3.87,3.72-3.87c2.75,0,4.15,2.12,4.18,6.36a26.66,26.66,0,0,1,18-7.09,5.89,5.89,0,0,1,5.11,2.34q1.69,2.32,1.69,7C262.2,32,262.18,32.87,262.16,33.33Z"/><path class="cls-1" d="M303.84,64.16c-.53,0-1.5-.56-2.91-1.69a17.39,17.39,0,0,1-2.83-2.79,56.81,56.81,0,0,1-7.14,3,17.25,17.25,0,0,1-5.15,1q-9.88,0-14.4-5.06-4.28-4.74-4.27-14.55a21,21,0,0,1,7-15.86,23.23,23.23,0,0,1,25-4.86q5.74,2.14,5.74,5.17a2.49,2.49,0,0,1-.84,1.84,25.87,25.87,0,0,0-.66,4.78q-.22,3.33-.27,8.55a28.19,28.19,0,0,0,.72,7.5A52.74,52.74,0,0,0,306.55,58c.19.45.52,1.13,1,2l.25.66a3.14,3.14,0,0,1-1.18,2.52A4.13,4.13,0,0,1,303.84,64.16Zm-8.78-26.62a31.17,31.17,0,0,1,.23-3.58c.16-1.29.39-2.67.7-4.12a21.14,21.14,0,0,0-2.68-1.07,6.56,6.56,0,0,0-1.8-.35,15.31,15.31,0,0,0-11.3,4.85,15.47,15.47,0,0,0-4.75,11.16q0,6.28,2.45,9.43T285.26,57a16,16,0,0,0,6.88-1.34,25.65,25.65,0,0,0,4.27-2.91A126.77,126.77,0,0,1,295.06,37.54Z"/><path class="cls-1" d="M325.85,31.52l-.64,19q0,3-.33,8.89-.44,3.82-4.14,3.83-4.14,0-4.14-3.91,0-4.63.46-13.92t.47-13.93q0-6,.21-13.84T318,3.83Q318,0,322.09,0t4.18,3.83q0,6.06-.21,13.85T325.85,31.52Z"/><path class="cls-1" d="M427.42,64.81a4.39,4.39,0,0,1-3.75-2.14,19,19,0,0,1-2.28-6.13L419.86,50q-1.73-6.14-5.49-27L405.93,46l-2.49,7.28a39.86,39.86,0,0,1-3.17,7.09,5.4,5.4,0,0,1-4.78,2.91,4.37,4.37,0,0,1-3.92-2.45,19.67,19.67,0,0,1-1.69-4.1l-1.23-4.25q-4.26-13.53-7.52-29l-1.52,6.86L374.17,50.6a75.88,75.88,0,0,1-2.12,10.53,4.3,4.3,0,0,1-4.18,3,4.24,4.24,0,0,1-3.29-1.34A4,4,0,0,1,363.52,60q0-6.41,2.92-15.71l4.64-15.44,2.45-12.06q1.86-8.46,3.93-11.07a5.09,5.09,0,0,1,4.18-2.22,4.35,4.35,0,0,1,4.1,2.83q1.65,3.41,3.55,13.91a208.15,208.15,0,0,0,7,27.27,264.46,264.46,0,0,0,10.82-30.72l1.26-5.59a18.91,18.91,0,0,1,2-5.44,5,5,0,0,1,4.52-2.84q3.63,0,5.53,6.36a72.94,72.94,0,0,1,1.65,9,202.6,202.6,0,0,0,6.21,29.57l2.07,6.59a34.29,34.29,0,0,1,1.6,6.51,3.43,3.43,0,0,1-1.37,2.76A4.82,4.82,0,0,1,427.42,64.81Z"/><path class="cls-1" d="M474,64.16c-.53,0-1.51-.56-2.91-1.69a17.39,17.39,0,0,1-2.83-2.79,58.08,58.08,0,0,1-7.14,3,17.31,17.31,0,0,1-5.15,1q-9.89,0-14.41-5.06-4.26-4.74-4.26-14.55a21,21,0,0,1,7-15.86,23.23,23.23,0,0,1,25-4.86c3.82,1.43,5.74,3.15,5.74,5.17a2.47,2.47,0,0,1-.85,1.84,25.22,25.22,0,0,0-.65,4.78q-.24,3.33-.27,8.55a28.68,28.68,0,0,0,.71,7.5A54.38,54.38,0,0,0,476.71,58c.2.45.52,1.13,1,2l.25.66a3.17,3.17,0,0,1-1.18,2.52A4.13,4.13,0,0,1,474,64.16Zm-8.78-26.62a29.06,29.06,0,0,1,.23-3.58c.15-1.29.39-2.67.7-4.12a21.2,21.2,0,0,0-2.69-1.07,6.43,6.43,0,0,0-1.79-.35,15.29,15.29,0,0,0-11.3,4.85,15.47,15.47,0,0,0-4.75,11.16q0,6.28,2.45,9.43T455.43,57a16,16,0,0,0,6.88-1.34,25.65,25.65,0,0,0,4.27-2.91A126.77,126.77,0,0,1,465.23,37.54Z"/><path class="cls-1" d="M495.26,44.24c0,1.53,0,3.83.14,6.88s.15,5.34.15,6.87a3.61,3.61,0,0,1-1.14,2.76,4.71,4.71,0,0,1-6,0A3.59,3.59,0,0,1,487.27,58q0-2.3-.14-6.87c-.1-3-.15-5.35-.15-6.88q0-3.6.42-9t.42-9a3.66,3.66,0,0,1,1.16-2.8,4.68,4.68,0,0,1,6,0,3.66,3.66,0,0,1,1.16,2.8q0,3.6-.42,9T495.26,44.24Zm-1.9-31.1a5.15,5.15,0,0,1-3.51-1.3,4.08,4.08,0,0,1,0-6.29,5.15,5.15,0,0,1,3.51-1.3,5.08,5.08,0,0,1,3.48,1.3,4.12,4.12,0,0,1,0,6.29A5.08,5.08,0,0,1,493.36,13.14Z"/><path class="cls-1" d="M541.93,64.35a3.7,3.7,0,0,1-4.1-3.6l-1.18-8.39a63.31,63.31,0,0,1-.59-8.39c0-.71,0-1.92.14-3.64s.15-2.92.15-3.63q0-8.28-3.38-8.28-4.72,0-9,5.1a33.45,33.45,0,0,0-6.08,11.72c-.06,1-.18,2.25-.38,3.75a28.23,28.23,0,0,0-.25,3.72,33.88,33.88,0,0,0,.25,3.44c.17,1.54.26,2.69.26,3.45a3.63,3.63,0,0,1-1.17,2.8,4.7,4.7,0,0,1-6,0,3.68,3.68,0,0,1-1.14-2.8,33.35,33.35,0,0,0-.28-3.45,32.36,32.36,0,0,1-.27-3.44q0-3.94.61-10.94c.41-4.66.61-8.3.61-10.94,0-.81-.05-2-.14-3.63s-.15-2.82-.15-3.64a3.42,3.42,0,0,1,1.2-2.7,4.33,4.33,0,0,1,3-1.06q3.88,0,4.26,5l.13,4.48q7.1-8.58,14.57-8.58,6.76,0,9.42,5.4,1.82,3.62,2,10.65V40.6l0,3.57a48.87,48.87,0,0,0,.91,8.21,47.85,47.85,0,0,1,.91,8.18A3.48,3.48,0,0,1,545,63.3,4.44,4.44,0,0,1,541.93,64.35Z"/><path class="cls-1" d="M583.06,29c-.59,0-1.28,0-2.09-.08s-1.5-.08-2.09-.08-2.56.2-5.74.58l.8,22.64,0,1.68,0,1.95q.18,8.4-4.43,8.39a4.58,4.58,0,0,1-2.94-1,3.08,3.08,0,0,1-1.24-2.49c0-1,0-2.43.13-4.37s.12-3.4.12-4.37l-.84-22.37c-2.06-.07-5.18-.29-9.38-.65-2.5-.3-3.76-1.57-3.76-3.79a3.77,3.77,0,0,1,1.14-2.8,4,4,0,0,1,2.92-1.11l8.87.65c0-1.3-.07-3-.19-5.22s-.19-3.76-.19-4.73a3.36,3.36,0,0,1,1.22-2.67,4.46,4.46,0,0,1,3-1.05q3.79,0,4.43,5.63c.09.95.13,2.08.13,3.41l-.08,2.22,0,2.38q5.25-.61,6-.62a26.15,26.15,0,0,1,5.75.39,3.38,3.38,0,0,1,2.57,3.6A3.64,3.64,0,0,1,586,27.9,4.17,4.17,0,0,1,583.06,29Z"/><path class="cls-1" d="M615.29,63.39q-9.54,0-15.46-4.32-6.47-4.8-6.46-13.41,0-10,5.32-16.7a18.66,18.66,0,0,1,15.46-7.36,26.4,26.4,0,0,1,11.45,2.15Q631,26.39,631,31.87c0,2.55-1.59,4.88-4.77,7a69.85,69.85,0,0,1-8.95,4.29l-16.14,6.93a15,15,0,0,0,5.89,4.79,19.7,19.7,0,0,0,8.22,1.61,28.12,28.12,0,0,0,6.84-1q5-1.26,6.42-3.31c1-1.36,2-2,3.08-2a3.88,3.88,0,0,1,2.64,1,3,3,0,0,1,1.17,2.35q0,4.26-7.56,7.32A33.51,33.51,0,0,1,615.29,63.39ZM614.15,28.5a11.3,11.3,0,0,0-8.57,3.62q-3.44,3.62-5.12,10.9l13-5.6a56.67,56.67,0,0,0,10.9-5.86Q620.7,28.5,614.15,28.5Z"/><path class="cls-1" d="M675.35,64.35a3.7,3.7,0,0,1-4.1-3.6l-1.18-8.39a63.31,63.31,0,0,1-.59-8.39c0-.71,0-1.92.15-3.64s.14-2.92.14-3.63c0-5.52-1.12-8.28-3.38-8.28q-4.73,0-9,5.1a33.46,33.46,0,0,0-6.09,11.72c0,1-.18,2.25-.38,3.75a30.05,30.05,0,0,0-.25,3.72c0,.76.09,1.91.25,3.44s.26,2.69.26,3.45A3.66,3.66,0,0,1,650,62.4a4.71,4.71,0,0,1-6,0,3.68,3.68,0,0,1-1.14-2.8,30.72,30.72,0,0,0-.28-3.45,32.36,32.36,0,0,1-.27-3.44q0-3.94.61-10.94c.41-4.66.61-8.3.61-10.94,0-.81,0-2-.14-3.63s-.15-2.82-.15-3.64a3.42,3.42,0,0,1,1.2-2.7,4.35,4.35,0,0,1,3-1.06q3.89,0,4.27,5l.12,4.48q7.09-8.58,14.57-8.58,6.76,0,9.42,5.4,1.82,3.62,2,10.65V40.6l0,3.57a48.69,48.69,0,0,0,.9,8.21,47.85,47.85,0,0,1,.91,8.18,3.48,3.48,0,0,1-1.2,2.74A4.43,4.43,0,0,1,675.35,64.35Z"/><path class="cls-1" d="M721.22,64.16c-.54,0-1.51-.56-2.92-1.69a17.81,17.81,0,0,1-2.83-2.79,56.81,56.81,0,0,1-7.14,3,17.25,17.25,0,0,1-5.15,1q-9.88,0-14.4-5.06-4.26-4.74-4.27-14.55a21,21,0,0,1,7-15.86,23.21,23.21,0,0,1,25-4.86q5.74,2.14,5.74,5.17a2.49,2.49,0,0,1-.84,1.84,25.22,25.22,0,0,0-.65,4.78q-.24,3.33-.28,8.55a28.19,28.19,0,0,0,.72,7.5A54.38,54.38,0,0,0,723.92,58c.2.45.52,1.13,1,2l.25.66A3.14,3.14,0,0,1,724,63.16,4.1,4.1,0,0,1,721.22,64.16Zm-8.79-26.62a31.17,31.17,0,0,1,.23-3.58c.16-1.29.39-2.67.7-4.12a21.14,21.14,0,0,0-2.68-1.07,6.56,6.56,0,0,0-1.8-.35,15.27,15.27,0,0,0-11.29,4.85,15.48,15.48,0,0,0-4.76,11.16q0,6.28,2.45,9.43T702.63,57a16.06,16.06,0,0,0,6.89-1.34,26.09,26.09,0,0,0,4.26-2.91A126.77,126.77,0,0,1,712.43,37.54Z"/><path class="cls-1" d="M764.89,64.35a3.7,3.7,0,0,1-4.1-3.6l-1.18-8.39A63.31,63.31,0,0,1,759,44c0-.71.05-1.92.15-3.64s.14-2.92.14-3.63c0-5.52-1.12-8.28-3.38-8.28q-4.73,0-9,5.1a33.3,33.3,0,0,0-6.09,11.72c0,1-.18,2.25-.38,3.75a28.23,28.23,0,0,0-.25,3.72,33.88,33.88,0,0,0,.25,3.44c.17,1.54.26,2.69.26,3.45a3.66,3.66,0,0,1-1.16,2.8,4.71,4.71,0,0,1-6,0,3.68,3.68,0,0,1-1.14-2.8,30.72,30.72,0,0,0-.28-3.45,32.36,32.36,0,0,1-.27-3.44q0-3.94.61-10.94c.41-4.66.61-8.3.61-10.94,0-.81,0-2-.14-3.63s-.15-2.82-.15-3.64a3.42,3.42,0,0,1,1.2-2.7,4.33,4.33,0,0,1,3-1.06q3.88,0,4.27,5l.12,4.48q7.1-8.58,14.57-8.58,6.77,0,9.42,5.4,1.81,3.62,2,10.65V40.6l0,3.57a48.69,48.69,0,0,0,.9,8.21,47.85,47.85,0,0,1,.91,8.18,3.48,3.48,0,0,1-1.2,2.74A4.43,4.43,0,0,1,764.89,64.35Z"/><path class="cls-1" d="M796.86,64q-8.65,0-14.44-4.75a16.11,16.11,0,0,1-6.09-13.13q0-7.78,5.71-16,6.33-9.19,14.27-9.2a28.58,28.58,0,0,1,9.25,1.77Q812,24.93,812,28.19a3.71,3.71,0,0,1-1,2.59,3.47,3.47,0,0,1-2.62,1.13,3.51,3.51,0,0,1-2.13-.67l-1.76-1.32q-2.49-1.8-8.15-1.8-4.3,0-8.53,7-3.84,6.39-3.84,11.07a9.46,9.46,0,0,0,3.8,8,14.5,14.5,0,0,0,9.12,2.72,13.78,13.78,0,0,0,5.41-1.22l4.9-2.38a5,5,0,0,1,1.81-.61,3.74,3.74,0,0,1,2.71,1.13,3.55,3.55,0,0,1,1.14,2.59q0,2.79-6.51,5.4A26.5,26.5,0,0,1,796.86,64Z"/><path class="cls-1" d="M841.93,63.39q-9.55,0-15.46-4.32Q820,54.27,820,45.66q0-10,5.32-16.7a18.64,18.64,0,0,1,15.46-7.36,26.35,26.35,0,0,1,11.44,2.15q5.44,2.64,5.45,8.12c0,2.55-1.59,4.88-4.77,7a70.21,70.21,0,0,1-9,4.29l-16.13,6.93a15,15,0,0,0,5.89,4.79,19.67,19.67,0,0,0,8.22,1.61,28.12,28.12,0,0,0,6.84-1q5-1.26,6.42-3.31c1-1.36,2-2,3.08-2a3.88,3.88,0,0,1,2.64,1,3,3,0,0,1,1.16,2.35q0,4.26-7.56,7.32A33.46,33.46,0,0,1,841.93,63.39ZM840.79,28.5a11.32,11.32,0,0,0-8.58,3.62q-3.42,3.62-5.11,10.9l13-5.6A56.52,56.52,0,0,0,851,31.56Q847.33,28.5,840.79,28.5Z"/><path class="cls-1" d="M909.88,14.25c0-2.55,1.17-5.24,3.51-8q3.76-4.48,7.85-4.49a9.68,9.68,0,0,1,7.57,3.07,10.34,10.34,0,0,1,2.57,7.28q0,7.77-10.18,14.7a145.14,145.14,0,0,0,10,16.28,23.22,23.22,0,0,0,1.27-4.36c.45-2.61.77-4.23,1-4.87q1.09-3.13,3.38-3.14a3.12,3.12,0,0,1,2.79,1.73,6.08,6.08,0,0,1,.84,3.17A25.55,25.55,0,0,1,936.07,50q7,10,7,11.91a3,3,0,0,1-1.2,2.36,4.21,4.21,0,0,1-2.73,1,3.91,3.91,0,0,1-3.25-2l-4.85-7.62a28,28,0,0,1-19,7.5,21,21,0,0,1-13.47-4.4,14.19,14.19,0,0,1-5.87-11.65q0-7.43,6.2-13.52,3.6-3.53,13.1-9.27A26,26,0,0,1,909.88,14.25Zm5.37,16.32a71,71,0,0,0-9.89,6.78q-5.1,4.63-5.11,9.76a8.06,8.06,0,0,0,3.68,6.82,13.77,13.77,0,0,0,8.15,2.42,19.66,19.66,0,0,0,14.74-6.55Q923.61,45.47,915.25,30.57Zm3.21-10.46q5.4-4.07,5.4-8a4.32,4.32,0,0,0-.65-2.63,2.33,2.33,0,0,0-2-.86c-.5,0-1.27.81-2.3,2.43a8.49,8.49,0,0,0-1.54,3.24A19.34,19.34,0,0,0,918.46,20.11Z"/><path class="cls-1" d="M1018.64,18.65a4.32,4.32,0,0,1-4-2.87,6.8,6.8,0,0,0-2.2-3,13.46,13.46,0,0,0-4.39-.42q-6.13,0-13.6,8.51Q984.26,32.3,984.26,42.52A12.27,12.27,0,0,0,996.42,54.7a20.79,20.79,0,0,0,8.75-2,67.39,67.39,0,0,0,7.52-4.52,7.71,7.71,0,0,1,3.63-1.61,4.1,4.1,0,0,1,3,1.25,3.88,3.88,0,0,1,1.22,2.77,3.83,3.83,0,0,1-1.6,3q-11.16,9-22.56,9a20,20,0,0,1-14.78-6.09,19.19,19.19,0,0,1-5.83-13.94q0-13,12-26.62,10-11.38,20.19-11.38c1.38,0,2.62.06,3.71.17a16,16,0,0,1,2.92.56,4.6,4.6,0,0,1,3.84-2c1.94,0,3.17,1.17,3.68,3.49a36.58,36.58,0,0,1,.67,7.62,4.34,4.34,0,0,1-.93,2.76A3.83,3.83,0,0,1,1018.64,18.65Z"/><path class="cls-1" d="M1040.73,31.52l-.63,19c0,2-.12,5-.34,8.89q-.42,3.82-4.14,3.83-4.14,0-4.14-3.91,0-4.63.46-13.92t.47-13.93q0-6,.21-13.84t.21-13.85Q1032.83,0,1037,0t4.18,3.83q0,6.06-.21,13.85T1040.73,31.52Z"/><path class="cls-1" d="M1073.42,63.39q-9.54,0-15.46-4.32-6.46-4.8-6.46-13.41,0-10,5.32-16.7a18.66,18.66,0,0,1,15.46-7.36,26.4,26.4,0,0,1,11.45,2.15q5.44,2.64,5.44,8.12c0,2.55-1.59,4.88-4.77,7a69.85,69.85,0,0,1-9,4.29l-16.14,6.93a15,15,0,0,0,5.89,4.79,19.7,19.7,0,0,0,8.22,1.61,28.12,28.12,0,0,0,6.84-1q5-1.26,6.42-3.31c1-1.36,2-2,3.09-2a3.87,3.87,0,0,1,2.63,1,3,3,0,0,1,1.17,2.35q0,4.26-7.56,7.32A33.51,33.51,0,0,1,1073.42,63.39Zm-1.14-34.89a11.3,11.3,0,0,0-8.57,3.62q-3.43,3.62-5.11,10.9l13-5.6a56.67,56.67,0,0,0,10.9-5.86Q1078.83,28.5,1072.28,28.5Z"/><path class="cls-1" d="M1134.07,64.16c-.54,0-1.51-.56-2.91-1.69a17,17,0,0,1-2.83-2.79,58.08,58.08,0,0,1-7.14,3,17.37,17.37,0,0,1-5.15,1q-9.88,0-14.41-5.06-4.26-4.74-4.26-14.55a21,21,0,0,1,7-15.86,23.21,23.21,0,0,1,25-4.86q5.74,2.14,5.75,5.17a2.47,2.47,0,0,1-.85,1.84,25.22,25.22,0,0,0-.65,4.78q-.24,3.33-.28,8.55a29.05,29.05,0,0,0,.72,7.5,54.38,54.38,0,0,0,2.66,6.75c.2.45.52,1.13,1,2l.26.66a3.17,3.17,0,0,1-1.18,2.52A4.13,4.13,0,0,1,1134.07,64.16Zm-8.78-26.62a29.06,29.06,0,0,1,.23-3.58c.15-1.29.38-2.67.69-4.12a20.56,20.56,0,0,0-2.68-1.07,6.43,6.43,0,0,0-1.79-.35,15.29,15.29,0,0,0-11.3,4.85,15.47,15.47,0,0,0-4.75,11.16c0,4.19.81,7.33,2.45,9.43s4.08,3.14,7.35,3.14a16,16,0,0,0,6.88-1.34,26.07,26.07,0,0,0,4.27-2.91A124.69,124.69,0,0,1,1125.29,37.54Z"/><path class="cls-1" d="M1177.74,64.35a3.69,3.69,0,0,1-4.09-3.6l-1.19-8.39a65.05,65.05,0,0,1-.59-8.39c0-.71.05-1.92.15-3.64s.15-2.92.15-3.63q0-8.28-3.38-8.28-4.74,0-9,5.1a33.29,33.29,0,0,0-6.08,11.72c-.06,1-.19,2.25-.38,3.75a28.28,28.28,0,0,0-.26,3.72c0,.76.09,1.91.26,3.44a34.23,34.23,0,0,1,.25,3.45,3.66,3.66,0,0,1-1.16,2.8,4.71,4.71,0,0,1-6,0,3.68,3.68,0,0,1-1.14-2.8,32.69,32.69,0,0,0-.27-3.45,30.41,30.41,0,0,1-.28-3.44q0-3.94.62-10.94c.4-4.66.61-8.3.61-10.94,0-.81,0-2-.15-3.63s-.15-2.82-.15-3.64a3.4,3.4,0,0,1,1.21-2.7,4.31,4.31,0,0,1,3-1.06c2.59,0,4,1.66,4.27,5l.13,4.48q7.1-8.58,14.57-8.58,6.75,0,9.42,5.4,1.82,3.62,2,10.65V40.6l0,3.57a47.84,47.84,0,0,0,.91,8.21,48.89,48.89,0,0,1,.91,8.18,3.49,3.49,0,0,1-1.21,2.74A4.43,4.43,0,0,1,1177.74,64.35Z"/><path class="cls-1" d="M1200.59,44.24c0,1.53.05,3.83.15,6.88s.15,5.34.15,6.87a3.61,3.61,0,0,1-1.14,2.76,4.71,4.71,0,0,1-6,0,3.55,3.55,0,0,1-1.16-2.76q0-2.3-.15-6.87c-.1-3-.15-5.35-.15-6.88q0-3.6.42-9t.43-9a3.62,3.62,0,0,1,1.16-2.8,4.67,4.67,0,0,1,6,0,3.63,3.63,0,0,1,1.17,2.8c0,2.4-.15,5.39-.43,9S1200.59,41.84,1200.59,44.24Zm-1.9-31.1a5.14,5.14,0,0,1-3.5-1.3,4.08,4.08,0,0,1,0-6.29,5.14,5.14,0,0,1,3.5-1.3,5.08,5.08,0,0,1,3.48,1.3,4.12,4.12,0,0,1,0,6.29A5.08,5.08,0,0,1,1198.69,13.14Z"/><path class="cls-1" d="M1247.26,64.35a3.7,3.7,0,0,1-4.09-3.6L1242,52.36a65.05,65.05,0,0,1-.59-8.39c0-.71,0-1.92.15-3.64s.15-2.92.15-3.63q0-8.28-3.38-8.28-4.74,0-9,5.1a33.29,33.29,0,0,0-6.08,11.72c-.06,1-.19,2.25-.38,3.75a28.28,28.28,0,0,0-.26,3.72c0,.76.09,1.91.26,3.44a34.23,34.23,0,0,1,.25,3.45,3.66,3.66,0,0,1-1.16,2.8,4.71,4.71,0,0,1-6,0,3.68,3.68,0,0,1-1.14-2.8,32.69,32.69,0,0,0-.27-3.45,30.41,30.41,0,0,1-.28-3.44q0-3.94.62-10.94c.4-4.66.61-8.3.61-10.94,0-.81,0-2-.15-3.63s-.15-2.82-.15-3.64a3.4,3.4,0,0,1,1.21-2.7,4.31,4.31,0,0,1,3-1.06c2.59,0,4,1.66,4.27,5l.13,4.48q7.1-8.58,14.57-8.58,6.75,0,9.42,5.4,1.82,3.62,2,10.65V40.6l0,3.57a47.84,47.84,0,0,0,.91,8.21,48.89,48.89,0,0,1,.91,8.18,3.49,3.49,0,0,1-1.21,2.74A4.43,4.43,0,0,1,1247.26,64.35Z"/><path class="cls-1" d="M1294.9,45.12l-1,12.87a49.61,49.61,0,0,1-1.73,12.53q-1.9,6.21-6.08,9.15-5.07,3.57-14.66,3.57a54.06,54.06,0,0,1-9.42-.69c-3.54-.64-5.32-2-5.32-4q0-3.41,3.68-3.41a32.4,32.4,0,0,1,5.07.67,38.47,38.47,0,0,0,7.85.6q8.12-.12,11.19-7.13,2-4.67,2.16-14.36a16.2,16.2,0,0,1-5.43,5.74,13.56,13.56,0,0,1-7.2,1.92,17,17,0,0,1-12.44-4.73,16.48,16.48,0,0,1-4.79-12.28q0-10.33,6.54-16.66,6.76-6.51,18.42-6.51a20.21,20.21,0,0,1,6.59.92,8.34,8.34,0,0,1,4.05,2.75q4.52.12,4.52,4.56a39.46,39.46,0,0,1-.89,7.28Q1295.08,43.22,1294.9,45.12Zm-13.55-16.58q-8,0-12.42,5a16.91,16.91,0,0,0-3.93,11.5q0,5.55,2.32,8.35t7,2.79q4.28,0,8.28-4.36a15,15,0,0,0,4.14-8q.88-4.14,1.9-13a12.84,12.84,0,0,0-3.51-1.76A12.44,12.44,0,0,0,1281.35,28.54Z"/><path class="cls-1" d="M1331.69,52.09a3.11,3.11,0,0,1,1.2-2.62,4.69,4.69,0,0,1,3.07-1,4.46,4.46,0,0,1,3.63,2.14,15.36,15.36,0,0,0,3.84,3.95q3.58,2.14,10.43,2.14A29,29,0,0,0,1366,54.12q7.17-3.28,7.18-9.15,0-4.83-6-7.62a31.43,31.43,0,0,0-12.63-2.61,26.54,26.54,0,0,1-11.36-2.64q-6-3.11-6-8.89,0-6.81,8.53-12.45a30.42,30.42,0,0,1,16.85-5.32,39.28,39.28,0,0,1,9.25,1.26q6.86,1.65,6.85,4.22c0,2.24-1.27,3.37-3.81,3.37a36.7,36.7,0,0,1-5.91-.83,34.08,34.08,0,0,0-6.54-.78,21.17,21.17,0,0,0-11.2,3q-4.73,2.94-4.73,7.16c0,2.12,2.09,3.62,6.25,4.48a74.72,74.72,0,0,0,9,.92q9.67.66,15.12,5.52a14,14,0,0,1,5,10.84q0,9.12-9.29,14.55a39.06,39.06,0,0,1-32.86,2C1334.44,58.94,1331.77,55.92,1331.69,52.09Z"/><path class="cls-1" d="M1411.6,63.39q-9.54,0-15.46-4.32-6.47-4.8-6.46-13.41,0-10,5.32-16.7a18.66,18.66,0,0,1,15.46-7.36,26.4,26.4,0,0,1,11.45,2.15q5.44,2.64,5.44,8.12c0,2.55-1.59,4.88-4.77,7a69.85,69.85,0,0,1-8.95,4.29l-16.14,6.93a15,15,0,0,0,5.9,4.79,19.65,19.65,0,0,0,8.21,1.61,28.12,28.12,0,0,0,6.84-1q5-1.26,6.42-3.31c1-1.36,2-2,3.09-2a3.91,3.91,0,0,1,2.64,1,3,3,0,0,1,1.16,2.35q0,4.26-7.56,7.32A33.51,33.51,0,0,1,1411.6,63.39Zm-1.14-34.89a11.3,11.3,0,0,0-8.57,3.62q-3.44,3.62-5.11,10.9l13-5.6a56.67,56.67,0,0,0,10.9-5.86Q1417,28.5,1410.46,28.5Z"/><path class="cls-1" d="M1472.12,33.33q-.28,4.79-4.22,4.78-3.63,0-3.63-3.79c0-.48,0-1.38-.13-2.68l-.12-3.22a23.75,23.75,0,0,0-10.69,3.41,18.61,18.61,0,0,0-6.25,7.51l.08,21q0,3.87-4.18,3.87c-2.48,0-3.71-1.29-3.71-3.87V33.44c0-.84,0-2.11.1-3.79s.11-2.95.11-3.79c0-2.58,1.23-3.87,3.71-3.87,2.76,0,4.16,2.12,4.18,6.36a26.7,26.7,0,0,1,18-7.09,5.89,5.89,0,0,1,5.11,2.34c1.12,1.55,1.69,3.9,1.69,7C1472.17,32,1472.15,32.87,1472.12,33.33Z"/><path class="cls-1" d="M1500.3,59.64q-.13,3.53-3.85,3.52c-2,0-3.55-1.09-4.48-3.29l-6.46-15.55L1478,26.74a4.65,4.65,0,0,1-.42-1.77,3.42,3.42,0,0,1,1.31-2.68,4.56,4.56,0,0,1,3-1.11,3.76,3.76,0,0,1,3.64,2.34l10.72,26.77q3.17-6.12,8-17.77,1.14-3.06,3.58-8.66a4.09,4.09,0,0,1,3.72-2.45,4.54,4.54,0,0,1,3,1.11,3.37,3.37,0,0,1,1.31,2.65q0,1.45-7,16.39Z"/><path class="cls-1" d="M1532.86,44.24c0,1.53.05,3.83.15,6.88s.14,5.34.14,6.87a3.63,3.63,0,0,1-1.13,2.76,4.71,4.71,0,0,1-6,0,3.55,3.55,0,0,1-1.16-2.76q0-2.3-.15-6.87c-.1-3-.15-5.35-.15-6.88q0-3.6.42-9c.28-3.59.43-6.58.43-9a3.62,3.62,0,0,1,1.16-2.8,4.67,4.67,0,0,1,6,0,3.62,3.62,0,0,1,1.16,2.8q0,3.6-.42,9T1532.86,44.24Zm-1.9-31.1a5.19,5.19,0,0,1-3.51-1.3,4.1,4.1,0,0,1,0-6.29,5.19,5.19,0,0,1,3.51-1.3,5.08,5.08,0,0,1,3.48,1.3,4.12,4.12,0,0,1,0,6.29A5.08,5.08,0,0,1,1531,13.14Z"/><path class="cls-1" d="M1566.23,64q-8.67,0-14.45-4.75a16.13,16.13,0,0,1-6.08-13.13q0-7.78,5.7-16,6.33-9.19,14.28-9.2a28.58,28.58,0,0,1,9.25,1.77c4.3,1.5,6.46,3.34,6.46,5.51a3.68,3.68,0,0,1-1.06,2.59,3.44,3.44,0,0,1-2.62,1.13,3.55,3.55,0,0,1-2.13-.67l-1.75-1.32q-2.49-1.8-8.15-1.8-4.32,0-8.53,7-3.86,6.39-3.85,11.07a9.49,9.49,0,0,0,3.8,8,14.55,14.55,0,0,0,9.13,2.72,13.74,13.74,0,0,0,5.4-1.22l4.9-2.38a5,5,0,0,1,1.82-.61,3.72,3.72,0,0,1,2.7,1.13,3.55,3.55,0,0,1,1.14,2.59q0,2.79-6.5,5.4A26.54,26.54,0,0,1,1566.23,64Z"/><path class="cls-1" d="M1611.29,63.39q-9.54,0-15.46-4.32-6.46-4.8-6.46-13.41,0-10,5.32-16.7a18.66,18.66,0,0,1,15.46-7.36,26.4,26.4,0,0,1,11.45,2.15q5.45,2.64,5.44,8.12c0,2.55-1.59,4.88-4.77,7a69.85,69.85,0,0,1-9,4.29l-16.14,6.93a15,15,0,0,0,5.9,4.79,19.65,19.65,0,0,0,8.21,1.61,28.12,28.12,0,0,0,6.84-1c3.32-.84,5.47-1.94,6.42-3.31s2-2,3.09-2a3.91,3.91,0,0,1,2.64,1,3,3,0,0,1,1.16,2.35q0,4.26-7.56,7.32A33.51,33.51,0,0,1,1611.29,63.39Zm-1.14-34.89a11.3,11.3,0,0,0-8.57,3.62q-3.42,3.62-5.11,10.9l13-5.6a56.67,56.67,0,0,0,10.9-5.86Q1616.7,28.5,1610.15,28.5Z"/></g></svg>